<svg width="1440" height="460" viewBox="0 0 1440 460" fill="none" xmlns="http://www.w3.org/2000/svg">
<path d="M698.081 38.7143C699.289 31.2401 686.737 25.0788 677.267 24.4311C672.771 24.1336 668.087 24.7112 663.82 23.4509C654.579 20.7553 650.894 10.7081 641.882 7.50493C635.138 5.12441 627.312 7.24237 620.838 10.008C614.365 12.7736 607.829 16.2568 600.544 16.6594C594.175 16.992 587.285 15.0141 581.811 17.6221C577.648 19.5651 575.566 23.5735 571.695 25.954C567.823 28.3345 563.078 28.7546 558.457 28.9646C553.836 29.1747 549.028 29.2097 544.802 30.8375C540.577 32.4654 537.08 36.2112 537.975 40.0446L698.081 38.7143Z" fill="#E0E0E0"/>
<path d="M541.305 127.039C543.075 116.291 525.008 107.434 511.457 106.507C504.984 106.069 498.261 106.909 492.12 105.106C478.841 101.22 473.554 86.7973 460.586 82.1937C450.907 78.693 439.772 81.8087 430.363 85.7995C420.955 89.7904 411.63 94.7615 401.223 95.3391C392.106 95.8292 382.198 92.9761 374.164 96.7219C368.211 99.5225 365.089 105.281 359.594 108.695C354.099 112.108 347.23 112.72 340.569 113.018C333.908 113.316 327.019 113.386 320.962 115.714C314.905 118.042 309.888 123.45 311.137 128.946L541.305 127.039Z" fill="#EBEBEB"/>
<path d="M1409.07 157.775C1410.82 147.028 1392.77 138.171 1379.2 137.243C1372.73 136.806 1366 137.646 1359.88 135.843C1346.6 131.957 1341.3 117.534 1328.35 112.93C1318.65 109.43 1307.53 112.545 1298.1 116.431C1288.68 120.317 1279.37 125.411 1268.96 125.988C1259.83 126.478 1249.92 123.625 1241.91 127.371C1235.95 130.172 1232.83 135.931 1227.34 139.344C1221.84 142.757 1214.97 143.37 1208.33 143.667C1201.69 143.965 1194.78 144.035 1188.7 146.363C1182.63 148.691 1177.63 154.1 1178.9 159.596L1409.07 157.775Z" fill="#EBEBEB"/>
<path d="M169.473 82.7189C170.305 77.6253 161.751 73.4243 155.34 72.9867C152.259 72.7767 149.095 73.1793 146.181 72.3216C139.937 70.5712 137.377 63.5697 131.236 61.4692C126.657 59.8414 121.37 61.2942 116.937 63.2196C112.503 65.145 108.09 67.473 103.116 67.7356C98.7863 67.9631 94.103 66.6154 90.3147 68.4007C87.5047 69.7485 86.0269 72.4091 83.5291 74.0195C80.8208 75.417 77.6934 76.1337 74.5164 76.0849C71.3555 76.0141 68.2068 76.4415 65.2331 77.3452C63.7584 77.8281 62.5093 78.6995 61.6726 79.829C60.8359 80.9586 60.4566 82.2856 60.5914 83.6116L169.473 82.7189Z" fill="#EBEBEB"/>
<path d="M1264.47 57.0408C1265.3 51.9472 1256.75 47.7637 1250.31 47.3261C1247.25 47.1161 1244.07 47.5187 1241.18 46.661C1234.93 44.8231 1232.37 37.9091 1226.23 35.8086C1221.65 34.1808 1216.37 35.6336 1211.91 37.559C1207.46 39.4844 1203.07 41.8124 1198.11 42.075C1193.78 42.3201 1189.1 40.9723 1185.31 42.7401C1182.5 44.0704 1181.02 46.801 1178.42 48.4114C1175.72 49.827 1172.59 50.5508 1169.41 50.4943C1166.25 50.4295 1163.1 50.8629 1160.12 51.7721C1158.67 52.2507 1157.43 53.1086 1156.6 54.2203C1155.76 55.3321 1155.37 56.6393 1155.48 57.951L1264.47 57.0408Z" fill="#EBEBEB"/>
<path d="M1047.5 1.15103C1046.72 1.04418 1045.95 0.903965 1045.19 0.730933C1043.09 0.370154 1040.93 0.316858 1038.82 0.573399C1035.33 0.979624 1032.07 2.26398 1029.47 4.25737C1026.87 6.25077 1025.05 8.85975 1024.25 11.7408L1023.89 12.9311L1023.35 11.8109C1021.88 8.81327 1019.37 6.25754 1016.15 4.47675C1013.52 3.0282 1010.5 2.16673 1007.37 1.97371C1004.45 1.83395 1001.53 2.14846 998.749 2.90141C999.385 2.53834 1000.09 2.26628 1000.83 2.09623C1002.92 1.54734 1005.11 1.31618 1007.3 1.41358C1010.58 1.53771 1013.76 2.38271 1016.52 3.86412C1020.04 5.67975 1022.78 8.38918 1024.35 11.6008H1023.46V11.5133C1024.42 8.24616 1026.64 5.33674 1029.76 3.23398C1032.34 1.49713 1035.45 0.410693 1038.73 0.100794C1040.92 -0.117331 1043.14 0.0193316 1045.27 0.503385C1046.05 0.618557 1046.8 0.837169 1047.5 1.15103Z" fill="#E0E0E0"/>
<path d="M845.053 25.6214C845.053 25.6214 844.304 26.3566 842.972 27.6693C841.062 29.5133 839.335 31.4862 837.81 33.5681C832.732 40.4504 830.07 48.399 830.129 56.4982V56.7782H829.172C827.711 48.854 823.345 41.5109 816.683 35.7736C813.84 33.4292 810.731 31.3246 807.4 29.4897C807.4 29.4897 807.691 29.4897 808.17 29.7698C808.649 30.0499 809.356 30.2949 810.251 30.7675C812.723 32.0784 815.019 33.6101 817.099 35.336C824.069 41.0761 828.634 48.5638 830.108 56.6732H829.172V56.3931C829.092 48.1461 831.901 40.0618 837.248 33.148C838.843 31.0648 840.669 29.1131 842.701 27.3193C843.409 26.6891 844.034 26.2515 844.429 25.9365C844.619 25.8079 844.829 25.7019 845.053 25.6214Z" fill="#E0E0E0"/>
<path d="M941.196 153.259C941.196 153.347 939.552 152.787 936.492 152.209C932.184 151.421 927.745 151.279 923.379 151.789C916.903 152.507 910.791 154.725 905.728 158.195C899.508 162.45 895.12 168.304 893.239 174.859V175.034L892.865 176.224L892.323 175.104C889.285 168.895 884.082 163.604 877.399 159.928C871.931 156.946 865.648 155.187 859.145 154.817C854.765 154.558 850.364 154.901 846.115 155.832C843.118 156.498 841.515 157.075 841.494 157.005C841.853 156.827 842.229 156.675 842.618 156.55C843.73 156.148 844.87 155.803 846.032 155.517C851.352 154.21 856.944 153.873 862.432 154.528C867.92 155.183 873.179 156.815 877.857 159.316C884.743 163.02 890.106 168.416 893.218 174.772H892.323V174.579C894.254 167.862 898.769 161.868 905.166 157.53C909.535 154.618 914.641 152.588 920.091 151.599C925.54 150.61 931.188 150.687 936.596 151.824C937.77 152.072 938.924 152.382 940.051 152.752C940.455 152.884 940.839 153.054 941.196 153.259Z" fill="#E0E0E0"/>
<path d="M1115.44 89.4229C1115.44 89.4229 1114.52 89.1953 1112.83 88.9153C1110.48 88.5022 1108.05 88.4429 1105.67 88.7402C1102.14 89.1371 1098.82 90.3489 1096.06 92.241C1092.68 94.5712 1090.3 97.7592 1089.27 101.325L1088.9 102.516L1088.36 101.396C1086.7 98.0125 1083.87 95.1274 1080.24 93.1162C1077.27 91.4851 1073.85 90.5154 1070.31 90.2981C1067.91 90.1454 1065.5 90.3108 1063.17 90.7882C1061.53 91.1383 1060.63 91.4358 1060.61 91.3658C1060.59 91.2958 1060.8 91.2433 1061.21 91.0858C1061.81 90.8483 1062.43 90.6493 1063.07 90.4906C1066.01 89.7403 1069.11 89.5318 1072.15 89.8791C1075.2 90.2265 1078.12 91.1216 1080.72 92.5036C1084.55 94.5618 1087.53 97.5631 1089.25 101.098H1088.33V100.993C1089.4 97.2588 1091.91 93.9282 1095.47 91.5233C1097.9 89.9184 1100.74 88.8055 1103.76 88.2712C1106.78 87.7369 1109.91 87.7956 1112.9 88.4427C1113.55 88.5852 1114.19 88.7665 1114.81 88.9853C1115.25 89.3004 1115.46 89.3879 1115.44 89.4229Z" fill="#E0E0E0"/>
<path d="M986.593 67.9982C986.593 67.9982 985.698 68.8559 984.074 70.3962C981.768 72.5823 979.68 74.924 977.83 77.3977C971.832 85.5625 968.694 94.9843 968.776 104.581V104.914H967.818C966.879 99.7776 964.878 94.8193 961.907 90.2631C959.496 86.5172 956.468 83.0759 952.915 80.0408C950.526 77.9839 947.913 76.1203 945.109 74.4746C943.028 73.3193 941.966 72.7242 942.008 72.7242C942.05 72.7242 942.32 72.7242 942.882 73.0743C943.444 73.4244 944.298 73.6869 945.317 74.2645C948.227 75.8315 950.934 77.6501 953.394 79.6907C961.612 86.4961 967.006 95.3466 968.776 104.931H967.818V104.581C967.739 94.8294 971.053 85.2711 977.351 77.0827C979.234 74.6149 981.395 72.3054 983.804 70.1861C984.615 69.4335 985.365 68.9084 985.885 68.4358C986.1 68.2669 986.337 68.1201 986.593 67.9982Z" fill="#E0E0E0"/>
<path d="M695.188 200.24C694.959 200.397 671.147 177.047 642.027 148.078C612.908 119.109 589.47 95.5667 589.699 95.3392C589.928 95.1116 613.72 118.532 642.86 147.501C672.001 176.469 695.479 200.065 695.188 200.24Z" fill="#FF9C00"/>
<path d="M757.382 176.749C757.091 176.749 750.701 148.848 743.103 114.366C735.506 79.8832 729.595 51.8421 729.886 51.8071C730.177 51.7721 736.568 79.6907 744.165 114.191C751.762 148.691 757.694 176.697 757.382 176.749Z" fill="#FF9C00"/>
<path d="M865.785 49.584C866.076 49.6716 855.377 79.183 841.952 115.521C828.527 151.859 817.37 181.265 817.079 181.178C816.787 181.09 827.486 151.596 840.911 115.241C854.337 78.8855 865.514 49.514 865.785 49.584Z" fill="#FF9C00"/>
<path d="M1003.68 86.3071C1003.91 86.4647 976.623 113.543 942.591 146.783C908.559 180.023 880.896 206.839 880.73 206.663C880.563 206.488 907.789 179.428 941.821 146.188C975.853 112.948 1003.54 86.1321 1003.68 86.3071Z" fill="#FF9C00"/>
<path d="M1037.07 205.053C1037.19 205.298 1017.48 212.335 993.066 220.807C968.651 229.278 948.773 235.947 948.648 235.72C948.523 235.492 968.234 228.438 992.671 219.966C1017.11 211.495 1036.96 204.826 1037.07 205.053Z" fill="#FF9C00"/>
<path d="M685.988 237.365C709.696 206.033 757.216 188.88 800.468 195.986C843.721 203.093 881.375 226.985 891.283 265.266L805.943 335.649L685.988 237.365Z" fill="#FF9C00"/>
<path d="M843.909 218.531C843.404 218.33 842.923 218.09 842.472 217.813C841.557 217.323 840.266 216.501 838.476 215.625C833.518 213.01 828.318 210.733 822.927 208.816C814.916 205.962 806.532 203.912 797.95 202.708C783.197 200.654 768.098 201.203 753.611 204.318C739.124 207.434 725.565 213.049 713.796 220.807C709.17 223.816 704.846 227.141 700.87 230.749C699.413 231.992 698.414 233.059 697.665 233.724C697.317 234.094 696.926 234.434 696.499 234.74C696.792 234.337 697.127 233.956 697.498 233.602C698.185 232.902 699.143 231.851 700.558 230.504C704.444 226.791 708.714 223.376 713.318 220.299C728.572 210.007 746.87 203.4 766.249 201.185C785.649 199.138 805.347 201.558 823.24 208.186C828.632 210.129 833.807 212.472 838.705 215.188C840.453 216.116 841.723 216.938 842.597 217.516C843.066 217.824 843.505 218.163 843.909 218.531Z" fill="white"/>
<path d="M859.561 231.256C859.27 231.361 858.042 229.278 855.919 227.073C853.796 224.868 851.652 223.397 851.756 223.187C853.67 223.971 855.354 225.101 856.689 226.496C858.024 227.891 858.976 229.516 859.478 231.256H859.561Z" fill="white"/>
<path d="M1127.55 373.51L925.773 238.801L806.671 337.015L587.993 158.808L372.728 337.015L130.674 697.331H1312.49L1127.55 373.51Z" fill="#FF9C00"/>
<g opacity="0.8">
<path d="M1127.55 373.51L925.773 238.801L806.671 337.015L587.993 158.808L372.728 337.015L130.674 697.331H1312.49L1127.55 373.51Z" fill="white"/>
</g>
<path d="M464.895 260.715L568.573 201.237L542.929 246.187L601.959 198.314L674.748 229.523L587.993 158.808L464.895 260.715Z" fill="#FAFAFA"/>
<path d="M806.671 337.015L761.899 388.248L915.532 275.821L927.5 298.454L945.9 269.782L987.342 279.9L925.773 238.801L806.671 337.015Z" fill="#FAFAFA"/>
<path d="M796.222 339.833C795.771 339.577 795.347 339.29 794.953 338.975L791.518 336.384C788.521 334.144 784.275 330.818 779.029 326.652C768.622 318.355 754.655 306.558 739.357 293.395C724.058 280.232 710.216 268.399 699.809 259.98L687.799 250.038L684.489 247.325C684.088 247.026 683.718 246.698 683.386 246.345C683.834 246.597 684.252 246.884 684.635 247.202L688.09 249.775C691.067 252.016 695.313 255.359 700.579 259.508C710.986 267.822 724.974 279.602 740.272 292.765C755.571 305.928 769.413 317.743 779.716 326.18L791.893 336.104L795.202 338.817C795.58 339.127 795.922 339.467 796.222 339.833Z" fill="#FF9C00"/>
<path d="M1309.18 691.38L1299.37 674.086L1261.91 608.376L1127.97 373.335V373.247C1066.83 332.411 998.915 287.024 926.251 238.468L925.898 238.223L925.564 238.485L806.817 336.402L776.199 311.441L588.347 158.493L587.993 158.195L587.618 158.493L372.436 336.77L260.037 516.814C253.099 527.981 246.973 537.819 241.658 546.325C242.532 545.1 243.427 543.892 244.343 542.685C249.103 535.088 254.48 526.529 260.474 517.006L373.165 337.155C434.901 286.078 508.148 225.533 587.993 159.421L775.324 312.089L806.317 337.347L806.692 337.662L807.088 337.347L925.835 239.326L1127.2 373.685C1182.85 471.006 1229.19 551.909 1261.51 608.499L1299.1 674.173C1303.45 681.735 1306.78 687.529 1309.05 691.432C1311.32 695.336 1312.49 697.331 1312.49 697.331C1312.49 697.331 1311.38 695.301 1309.18 691.38Z" fill="#263238"/>
<path d="M439.459 521.557L425.305 457.091L403.804 517.094L410.173 514.993L394.562 550.841L403.554 547.481L392.731 561.186L441.52 561.029L437.336 549.038L441.499 555.27L432.299 517.532L439.459 521.557Z" fill="#FF9C00"/>
<path opacity="0.6" d="M439.459 521.557L425.305 457.091L403.804 517.094L410.173 514.993L394.562 550.841L403.554 547.481L392.731 561.186L441.52 561.029L437.336 549.038L441.499 555.27L432.299 517.532L439.459 521.557Z" fill="white"/>
<path d="M486.105 495.319L467.497 408.78L438.294 489.175L446.849 486.375L425.701 534.388L437.794 529.924L423.182 561.186H488.624L483.087 532.165L488.624 540.532L476.53 489.893L486.105 495.319Z" fill="#FF9C00"/>
<path opacity="0.4" d="M486.105 495.319L467.497 408.78L438.294 489.175L446.849 486.375L425.701 534.388L437.794 529.924L423.182 561.186H488.624L483.087 532.165L488.624 540.532L476.53 489.893L486.105 495.319Z" fill="white"/>
<path d="M960.596 503.108L946.712 438.554L924.919 498.54L931.309 496.457L915.532 532.27L924.545 528.927L913.659 552.259H962.469L958.348 530.607L962.469 536.856L953.456 499.065L960.596 503.108Z" fill="#FF9C00"/>
<path opacity="0.6" d="M960.596 503.108L946.712 438.554L924.919 498.54L931.309 496.457L915.532 532.27L924.545 528.927L913.659 552.259H962.469L958.348 530.607L962.469 536.856L953.456 499.065L960.596 503.108Z" fill="white"/>
<path d="M926.792 511.23L915.136 457.038L896.861 507.379L902.21 505.629L888.972 535.701L896.549 532.9L887.39 552.469H928.374L924.919 534.3L928.374 539.534L920.798 507.834L926.792 511.23Z" fill="#FF9C00"/>
<path opacity="0.4" d="M926.792 511.23L915.136 457.038L896.861 507.379L902.21 505.629L888.972 535.701L896.549 532.9L887.39 552.469H928.374L924.919 534.3L928.374 539.534L920.798 507.834L926.792 511.23Z" fill="white"/>
<path d="M1187.62 459.471L1120.2 146.328L1014.55 437.242L1045.52 427.142L969.005 600.885L1012.74 584.711L959.909 697.856H1196.72L1176.67 592.798L1196.72 623.097L1152.92 439.832L1187.62 459.471Z" fill="#263238"/>
<path d="M311.887 470.236L242.178 72.199L145.744 448.917L175.467 439.202L102.013 606.013L143.996 590.505L93.2704 699.116H320.629L301.396 598.259L320.629 627.351L278.562 451.385L311.887 470.236Z" fill="#263238"/>
<path d="M340.028 169.608C340.028 171.971 284.827 318.285 284.827 318.285L312.49 294.69L272.734 396.948L298.919 366.263L268.051 494.497L283.017 481.124L256.769 571.583L279.187 547.971L256.749 615.623L434.485 604.613L392.377 477.185L417.812 500.78L384.904 408.01L401.743 415.869L363.403 296.248L381.178 306.488L340.028 169.608Z" fill="#455A64"/>
<path d="M990.941 181.285C990.941 183.648 935.74 329.962 935.74 329.962L963.403 306.367L923.647 408.624L949.832 377.94L918.964 506.173L933.929 492.8L907.682 583.26L930.099 559.647L907.661 627.3L1085.4 616.29L1043.29 488.862L1068.72 512.457L1035.82 419.687L1052.66 427.546L1014.32 307.925L1032.09 318.165L990.941 181.285Z" fill="#455A64"/>
<path d="M1366.34 545.87L1322.9 344.034L1254.79 531.552L1274.75 525.041L1225.44 637.03L1253.6 626.615L1221.09 698.469L1372.04 698.591L1359.3 631.832L1372.2 651.366L1343.98 533.215L1366.34 545.87Z" fill="#455A64"/>
<path d="M1214.31 87.9175C1214.31 90.123 1162.73 226.863 1162.73 226.863L1188.52 204.808L1151.32 300.379L1175.8 271.708L1146.95 391.539L1160.94 379.041L1136.5 463.585L1157.56 441.53L1136.58 504.754L1302.68 494.462L1263.34 375.435L1287.11 397.49L1256.35 310.741L1272.09 318.093L1236.16 206.278L1252.81 215.836L1214.31 87.9175Z" fill="#FF9C00"/>
<path d="M633.354 124.295C633.354 126.501 581.776 263.241 581.776 263.241L607.565 241.186L570.369 336.757L594.847 308.086L565.998 427.917L579.986 415.419L555.549 499.963L576.614 477.908L555.632 541.132L721.733 530.839L682.394 411.813L706.164 433.868L675.4 347.119L691.136 354.471L655.21 242.656L671.861 252.213L633.354 124.295Z" fill="#FF9C00"/>
<path d="M1219.88 331.991C1219.69 332.69 1219.41 333.37 1219.05 334.021C1218.41 335.439 1217.53 337.295 1216.47 339.57L1207.17 358.702L1206.75 359.56L1206.25 358.754C1203.63 354.671 1201.37 350.436 1199.46 346.082C1198.71 344.331 1198.05 342.686 1197.38 341.058H1198.38C1193.8 350.878 1189.33 359.437 1185.89 365.563C1184.21 368.609 1182.81 371.025 1181.73 372.687C1181.27 373.44 1180.88 374.053 1180.54 374.578C1180.42 374.804 1180.27 375.016 1180.09 375.208C1180.43 374.294 1180.86 373.404 1181.38 372.547L1185.16 365.318C1188.37 359.174 1192.72 350.598 1197.26 340.813L1197.82 339.605L1198.28 340.848C1198.86 342.458 1199.55 344.121 1200.36 345.819C1202.24 350.131 1204.46 354.33 1207.02 358.387H1206.1C1209.98 350.773 1213.31 344.191 1215.76 339.378L1218.61 333.934C1218.96 333.251 1219.38 332.6 1219.88 331.991Z" fill="#263238"/>
<path d="M1237.58 280.95C1237.21 280.484 1236.9 279.992 1236.64 279.479C1236.01 278.359 1235.2 276.959 1234.27 275.296C1232.18 271.795 1229.19 266.789 1225.27 261.293L1226.21 261.188C1225.38 263.884 1224.5 266.772 1223.57 269.782C1222.98 271.655 1222.4 273.476 1221.86 275.244L1221.47 276.469L1220.86 275.314C1217.32 268.697 1214.24 262.851 1212.1 258.65L1209.6 253.714C1209.27 253.155 1209.01 252.568 1208.83 251.963C1209.29 252.506 1209.67 253.094 1209.95 253.714C1210.68 255.009 1211.62 256.619 1212.72 258.562C1215.05 262.676 1218.24 268.47 1221.82 275.086H1220.82C1221.36 273.336 1221.94 271.498 1222.53 269.625C1223.46 266.614 1224.38 263.726 1225.21 261.03L1225.52 260.015L1226.17 260.925C1229.37 265.543 1232.27 270.306 1234.85 275.191C1235.81 276.941 1236.51 278.464 1236.93 279.479C1237.22 279.945 1237.43 280.439 1237.58 280.95Z" fill="#263238"/>
<path d="M1214.06 176.189C1213.21 177.867 1212.23 179.493 1211.12 181.055C1209.18 184.031 1206.42 188.162 1203.23 192.853L1202.5 193.921L1202.23 192.713C1201.94 191.348 1201.65 189.947 1201.34 188.512C1200.82 186.009 1200.34 183.628 1199.86 181.405L1200.82 181.563C1197.84 185.519 1195.26 188.88 1193.41 191.26C1192.49 192.566 1191.44 193.807 1190.28 194.971C1191 193.578 1191.86 192.242 1192.87 190.98C1194.57 188.53 1197.03 185.081 1199.94 181.108L1200.65 180.145L1200.88 181.248L1202.42 188.354C1202.71 189.79 1203 191.19 1203.29 192.555L1202.29 192.415C1205.54 187.742 1208.41 183.663 1210.62 180.758C1211.62 179.163 1212.77 177.636 1214.06 176.189Z" fill="#263238"/>
<path d="M115.709 135.563C115.709 137.978 59.509 287.146 59.509 287.146L87.6504 263.096L47.0411 367.314L73.7463 336.069L42.2745 466.805L57.5316 453.17L30.8265 545.398L53.7226 521.347L30.8265 590.312L212.039 579.11L169.119 449.179L195.033 473.247L161.48 378.604L178.652 386.568L139.541 264.689L157.671 275.191L115.709 135.563Z" fill="#FF9C00"/>
<path d="M142.684 376.696C142.684 376.696 142.455 376.573 142.081 376.276L140.436 374.945C138.938 373.685 136.898 371.97 134.358 369.869L113.419 351.98L114.272 351.753C113.086 357.599 111.795 364.005 110.442 370.692L108.174 381.614L107.861 383.172L107.175 381.719C102.611 372.191 99.1262 362.322 96.7672 352.243C95.893 348.462 95.3518 345.416 95.0188 343.333C94.8523 342.283 94.769 341.46 94.7066 340.918C94.6564 340.634 94.6564 340.345 94.7066 340.06C94.8119 340.328 94.8885 340.603 94.9356 340.883L95.4351 343.281C95.8722 345.364 96.5175 348.375 97.5166 352.033C100.051 362.034 103.61 371.832 108.153 381.317L107.133 381.422C107.861 377.921 108.59 374.228 109.36 370.482C110.755 363.795 112.066 357.389 113.273 351.56L113.44 350.72L114.147 351.333L134.796 369.449L140.665 374.7L142.206 376.118C142.397 376.291 142.558 376.485 142.684 376.696Z" fill="#263238"/>
<path d="M138.688 443.963C138.583 444.357 138.423 444.739 138.209 445.101L136.627 448.286L130.633 459.979L110.318 498.82L109.651 500.098L109.298 498.732L108.382 495.232C105.697 484.939 103.157 475.242 100.972 466.823L101.825 466.963L85.1735 487.477L80.511 493.341L79.2413 494.829C79.0959 495.012 78.9285 495.182 78.7418 495.337C78.8304 495.132 78.9493 494.938 79.0956 494.759L80.2612 493.201L84.778 487.32L101.034 466.613L101.659 465.825L101.908 466.753C104.136 475.155 106.717 484.852 109.443 495.144L110.359 498.645L109.339 498.557C117.415 483.364 124.68 469.764 129.946 459.839C132.589 455.008 134.712 451.087 136.19 448.251L137.939 445.136C138.127 444.719 138.379 444.325 138.688 443.963Z" fill="#263238"/>
<path d="M135.711 252.506C135.212 252.024 134.76 251.509 134.358 250.966L130.799 246.537L118.623 230.784L119.518 230.644C118.29 235.895 117.145 241.671 116.312 247.832C115.646 252.716 115.209 257.442 114.98 261.836V263.481L114.106 262.011C110.34 255.658 107.389 248.986 105.301 242.109C104.552 239.571 104.052 237.523 103.761 236.122C103.574 235.409 103.462 234.682 103.428 233.952C103.728 234.639 103.951 235.348 104.094 236.07C104.489 237.453 105.072 239.466 105.926 241.969C108.194 248.748 111.24 255.325 115.022 261.608L114.043 261.783C114.252 257.442 114.668 252.699 115.334 247.78C116.187 241.584 117.415 235.737 118.643 230.521L118.914 229.506L119.559 230.381L131.424 246.31L134.733 250.896C135.116 251.407 135.443 251.946 135.711 252.506Z" fill="#263238"/>
</svg>
